<?xml version="1.0" standalone="no"?>
<!DOCTYPE svg PUBLIC "-//W3C//DTD SVG 20010904//EN"
 "http://www.w3.org/TR/2001/REC-SVG-20010904/DTD/svg10.dtd">
<svg version="1.0" xmlns="http://www.w3.org/2000/svg"
 width="736.000000pt" height="769.000000pt" viewBox="0 0 736.000000 769.000000"
 preserveAspectRatio="xMidYMid meet">

<g transform="translate(0.000000,769.000000) scale(0.100000,-0.100000)"
fill="#000000" stroke="none">
<path d="M3480 7350 c-473 -31 -893 -146 -1316 -360 -364 -184 -703 -443 -965
-736 -225 -253 -374 -472 -520 -769 -393 -800 -452 -1696 -167 -2550 65 -196
189 -461 301 -646 332 -548 828 -1004 1392 -1279 382 -186 777 -295 1204 -331
158 -13 539 -7 676 11 242 32 532 102 749 182 912 335 1652 1073 1986 1982
299 814 272 1705 -77 2506 -220 505 -600 984 -1048 1321 -386 290 -830 495
-1300 598 -278 60 -643 89 -915 71z m620 -269 c167 -25 211 -33 339 -66 596
-151 1145 -482 1547 -933 83 -92 254 -312 254 -325 0 -4 -109 -7 -242 -7
l-243 0 -54 -120 c-35 -78 -57 -118 -65 -113 -6 4 -79 58 -162 120 l-151 113
-383 0 -383 0 -334 -250 -333 -250 0 -1329 0 -1330 168 -123 c92 -67 243 -178
336 -245 l168 -123 779 0 780 0 -68 -82 c-335 -404 -811 -736 -1327 -922 -484
-175 -1034 -225 -1556 -140 -712 116 -1383 498 -1856 1056 l-75 88 858 2 858
3 200 146 c110 80 262 190 338 244 l137 99 0 1326 0 1326 -337 252 -338 251
-917 1 c-505 0 -918 3 -918 6 0 16 180 243 278 349 523 571 1246 927 2017 994
167 15 525 5 685 -18z m2399 -1779 c173 -383 264 -772 277 -1187 17 -528 -88
-1010 -324 -1485 l-87 -175 -3 473 -2 472 -435 0 -435 0 0 -241 0 -241 -222 4
c-218 3 -224 4 -273 30 -63 33 -117 87 -147 147 l-23 46 -5 799 -5 800 -112
80 c-62 45 -112 84 -113 89 0 4 203 7 450 7 l450 0 0 -260 0 -260 400 0 c220
0 400 3 400 6 0 6 38 251 105 674 13 85 30 192 36 238 7 45 15 82 18 82 3 0
26 -44 50 -98z m-5551 -377 l131 -90 0 -1255 1 -1255 -32 50 c-63 100 -169
302 -215 410 -289 682 -330 1426 -117 2133 14 46 30 95 35 109 11 29 -8 39
197 -102z m1552 -36 c77 -36 124 -80 157 -147 l28 -57 3 -744 c3 -824 4 -808
-61 -893 -81 -106 -159 -130 -423 -126 l-189 3 -5 909 -5 910 -112 80 c-62 45
-113 85 -113 89 0 5 150 7 333 5 l332 -3 55 -26z"/>
</g>
</svg>
